Description
General
Complete name : C:Users\DocumentsTaken 2 2012 CAM XviD-NOYPi.avi
Format : AVI
Format/Info : Audio Video Interleave
File size : 862 MiB
Duration : 1h 23mn
Overall bit rate : 1 445 Kbps
Writing application : VirtualDubMod 1.5.10.2 (build 2540/release)
Writing library : VirtualDubMod build 2540/release

Video
ID : 0
Format : MPEG-4 Visual
Format profile : Advanced Simple@L5
Format settings, BVOP : 2
Format settings, QPel : No
Format settings, GMC : No warppoints
Format settings, Matrix : Default (H.263)
Muxing mode : Packed bitstream
Codec ID : XVID
Codec ID/Hint : XviD
Duration : 1h 23mn
Bit rate : 666 Kbps
Width : 640 pixels
Height : 300 pixels
Display aspect ratio : 3:2
Original display aspect ratio : 2.133
Frame rate : 29.970 fps
Color space : YUV
Chroma subsampling : 4:2:0
Bit depth : 8 bits
Scan type : Progressive
Compression mode : Lossy
Bits/(Pixel*Frame) : 0.116
Stream size : 397 MiB (46%)
Writing library : XviD 64

Audio
ID : 1
Format : PCM
Format settings, Endianness : Little
Format settings, Sign : Signed
Codec ID : 1
Duration : 1h 23mn
Bit rate mode : Constant
Bit rate : 768 Kbps
Channel(s) : 1 channel
Sampling rate : 48.0 KHz
Bit depth : 16 bits
Stream size : 458 MiB (53%)
Interleave, duration : 33 ms (1.00 video frame)
Interleave, preload duration : 500 ms